<?xml version="1.0" encoding="utf-8"?>
<!-- Generator: Adobe Illustrator 22.1.0, SVG Export Plug-In . SVG Version: 6.00 Build 0)  -->
<svg version="1.1" id="Layer_1" xmlns="http://www.w3.org/2000/svg" xmlns:xlink="http://www.w3.org/1999/xlink" x="0px" y="0px"
	 viewBox="0 0 864 1296" style="enable-background:new 0 0 864 1296;" xml:space="preserve">
<style type="text/css">
	.st0{fill:none;stroke:#000000;stroke-width:5;stroke-miterlimit:10;}
</style>
<path class="st0" d="M442.2,927c0,0,175-30,225-222s-12-354-82-398s-143-46-143-46H432c0,0-73,2-143,46s-132,206-82,398
	s225,222,225,222H442.2z"/>
<path class="st0" d="M207.7,512.3c0,0,54-40.7,103.3-30c49.3,10.7,64.7,30.7,73.3,46c8.7,15.3,18.7,67.3,16.7,90"/>
<path class="st0" d="M243.7,557c0,0,29.6-20,60.8-18s56.5,32,56.5,32"/>
<circle class="st0" cx="304.5" cy="557.9" r="19"/>
<path class="st0" d="M459.7,648c0,0,6.9,29,19.6,37c12.7,8,14,26,4,35.3c-10,9.3-23.6,5.3-23.6,5.3l-8.4-3.3c0,0-8.7,12.7-19.3,12.7
	h-3c-10.7,0-19.3-12.7-19.3-12.7l-8.4,3.3c0,0-13.6,4-23.6-5.3c-10-9.3-8.7-27.3,4-35.3c12.7-8,19.6-37,19.6-37"/>
<path class="st0" d="M435.5,827.7c47.3,0.4,66-35.3,66-35.3s-30-14.7-44.7-20C442.2,767,432,785,432,785h-1.5c0,0-10.2-18-24.8-12.7
	c-14.7,5.3-44.7,20-44.7,20s18.7,35.7,66,35.3H435.5z"/>
<path class="st0" d="M652.9,512.3c0,0-54-40.7-103.3-30c-49.3,10.7-64.7,30.7-73.3,46c-8.7,15.3-18.7,67.3-16.7,90"/>
<path class="st0" d="M616.9,557c0,0-29.6-20-60.8-18c-31.2,2-56.5,32-56.5,32"/>
<circle class="st0" cx="556.1" cy="557.9" r="19"/>
</svg>
