<?xml version="1.0" encoding="utf-8"?>
<!-- Generator: Adobe Illustrator 22.1.0, SVG Export Plug-In . SVG Version: 6.00 Build 0)  -->
<svg version="1.1" id="Layer_1" xmlns="http://www.w3.org/2000/svg" xmlns:xlink="http://www.w3.org/1999/xlink" x="0px" y="0px"
	 viewBox="0 0 123.4 159.5" style="enable-background:new 0 0 123.4 159.5;" xml:space="preserve">
<style type="text/css">
	.st0{fill:none;stroke:#000000;stroke-width:5;stroke-miterlimit:10;}
</style>
<path class="st0" d="M63.5,130.6c0,0,29.4-5,37.8-37.3s-2-59.5-13.8-66.9s-24-7.7-24-7.7h-1.7c0,0-12.3,0.3-24,7.7S15.6,61,24,93.3
	s37.8,37.3,37.8,37.3H63.5z"/>
<path class="st0" d="M24.1,60.9c0,0,9.1-6.8,17.4-5s10.9,5.2,12.3,7.7s3.1,11.3,2.8,15.1"/>
<path class="st0" d="M30.1,68.4c0,0,5-3.4,10.2-3c5.2,0.3,9.5,5.4,9.5,5.4"/>
<circle class="st0" cx="40.4" cy="68.6" r="3.2"/>
<path class="st0" d="M66.5,83.7c0,0,1.2,4.9,3.3,6.2s2.4,4.4,0.7,5.9c-1.7,1.6-4,0.9-4,0.9l-1.4-0.6c0,0-1.5,2.1-3.3,2.1h-0.5
	c-1.8,0-3.3-2.1-3.3-2.1l-1.4,0.6c0,0-2.3,0.7-4-0.9c-1.7-1.6-1.5-4.6,0.7-5.9s3.3-6.2,3.3-6.2"/>
<path class="st0" d="M62.4,113.9c8,0.1,11.1-5.9,11.1-5.9s-5-2.5-7.5-3.4c-2.5-0.9-4.2,2.1-4.2,2.1h-0.3c0,0-1.7-3-4.2-2.1
	c-2.5,0.9-7.5,3.4-7.5,3.4s3.1,6,11.1,5.9H62.4z"/>
<path class="st0" d="M99,60.9c0,0-9.1-6.8-17.4-5S70.7,61,69.2,63.6s-3.1,11.3-2.8,15.1"/>
<path class="st0" d="M92.9,68.4c0,0-5-3.4-10.2-3c-5.2,0.3-9.5,5.4-9.5,5.4"/>
<circle class="st0" cx="82.7" cy="68.6" r="3.2"/>
</svg>
