<?xml version="1.0" encoding="utf-8"?>
<!-- Generator: Adobe Illustrator 22.1.0, SVG Export Plug-In . SVG Version: 6.00 Build 0)  -->
<svg version="1.1" id="Layer_1" xmlns="http://www.w3.org/2000/svg" xmlns:xlink="http://www.w3.org/1999/xlink" x="0px" y="0px"
	 viewBox="0 0 216 279.8" style="enable-background:new 0 0 216 279.8;" xml:space="preserve">
<style type="text/css">
	.st0{fill:none;stroke:#000000;stroke-width:3;stroke-miterlimit:10;}
</style>
<path class="st0" d="M112.6,237.1c0,0,57.4-9.8,73.8-72.8s-3.9-116.1-26.9-130.6s-46.9-15.1-46.9-15.1h-3.3c0,0-23.9,0.7-46.9,15.1
	s-43.3,67.6-26.9,130.6s73.8,72.8,73.8,72.8H112.6z"/>
<path class="st0" d="M37.7,101.1c0,0,17.7-13.3,33.9-9.8c16.2,3.5,21.2,10.1,24.1,15.1c2.8,5,6.1,22.1,5.5,29.5"/>
<path class="st0" d="M49.5,115.7c0,0,9.7-6.6,19.9-5.9c10.2,0.7,18.5,10.5,18.5,10.5"/>
<path class="st0" d="M120.3,145.6c0,0,2.3,9.5,6.4,12.1c4.2,2.6,4.6,8.5,1.3,11.6c-3.3,3.1-7.7,1.7-7.7,1.7l-2.8-1.1
	c0,0-2.8,4.2-6.3,4.2h-1c-3.5,0-6.3-4.2-6.3-4.2l-2.8,1.1c0,0-4.5,1.3-7.7-1.7s-2.8-9,1.3-11.6c4.2-2.6,6.4-12.1,6.4-12.1"/>
<path class="st0" d="M112.4,204.5c15.5,0.1,21.6-11.6,21.6-11.6s-9.8-4.8-14.7-6.6s-8.1,4.2-8.1,4.2h-0.5c0,0-3.3-5.9-8.1-4.2
	S88,192.9,88,192.9s6.1,11.7,21.6,11.6H112.4z"/>
<path class="st0" d="M68.4,112.5c4.6,0,4.6,6.2,4.6,6.2s-0.6,5.6-4.6,5.6c-3.9,0-3.9-5.6-3.9-5.6S63.8,112.5,68.4,112.5z"/>
<path class="st0" d="M184.7,101.1c0,0-17.7-13.3-33.9-9.8c-16.2,3.5-21.2,10.1-24.1,15.1s-6.1,22.1-5.5,29.5"/>
<path class="st0" d="M172.9,115.7c0,0-9.7-6.6-19.9-5.9c-10.2,0.7-18.5,10.5-18.5,10.5"/>
<path class="st0" d="M154,112.5c-4.6,0-4.6,6.2-4.6,6.2s0.6,5.6,4.6,5.6s3.9-5.6,3.9-5.6S158.5,112.5,154,112.5z"/>
</svg>
